<?xml version="1.0" encoding="utf-8"?>
<!-- Generator: Adobe Illustrator 15.0.0, SVG Export Plug-In . SVG Version: 6.00 Build 0)  -->
<!DOCTYPE svg PUBLIC "-//W3C//DTD SVG 1.1//EN" "http://www.w3.org/Graphics/SVG/1.1/DTD/svg11.dtd">
<svg version="1.1" id="Layer_1" xmlns="http://www.w3.org/2000/svg" xmlns:xlink="http://www.w3.org/1999/xlink" x="0px" y="0px"
	 width="144px" height="144px" viewBox="0 0 144 144" enable-background="new 0 0 144 144" xml:space="preserve">
<path fill="#FFFFFF" d="M72.007,144.004c-39.75-0.033-71.968-32.252-72.008-72.001v-1.445C0.789,30.995,33.374-0.521,72.948,0.003
	c39.581,0.531,71.301,32.891,71.051,72.469C143.734,112.051,111.578,144.003,72.007,144.004z M72.007,14.401
	c-31.819,0-57.608,25.79-57.608,57.602s25.789,57.608,57.608,57.608c31.806,0,57.602-25.796,57.602-57.608
	C129.577,40.206,103.811,14.433,72.007,14.401z M61.562,108.004L51.382,97.815l25.46-25.453l-25.46-25.453l10.181-10.188
	l35.641,35.641l-35.634,35.642H61.562z"/>
</svg>
