<?xml version="1.0" encoding="utf-8"?>
<!-- Generator: Adobe Illustrator 15.0.0, SVG Export Plug-In . SVG Version: 6.00 Build 0)  -->
<!DOCTYPE svg PUBLIC "-//W3C//DTD SVG 1.1//EN" "http://www.w3.org/Graphics/SVG/1.1/DTD/svg11.dtd">
<svg version="1.1" id="Layer_1" xmlns="http://www.w3.org/2000/svg" xmlns:xlink="http://www.w3.org/1999/xlink" x="0px" y="0px"
	 width="144px" height="144px" viewBox="0 0 144 144" enable-background="new 0 0 144 144" xml:space="preserve">
<path fill="#FFFFFF" d="M0,72.472C-0.25,32.894,31.47,0.534,71.051,0.003C110.625-0.521,143.21,30.995,144,70.558v1.445
	c-0.04,39.749-32.258,71.968-72.008,72.001C32.421,144.003,0.265,112.051,0,72.472z M14.391,72.003
	c0,31.812,25.796,57.608,57.602,57.608c31.819,0,57.608-25.796,57.608-57.608s-25.789-57.602-57.608-57.602
	C40.188,14.433,14.422,40.206,14.391,72.003z M82.43,108.004L46.796,72.362l35.641-35.641l10.181,10.188l-25.46,25.453l25.46,25.453
	l-10.181,10.188H82.43z"/>
</svg>
